# xmcd
#
# Track frame offsets:
#	150
#	28389
#	51420
#	71580
#	98098
#	122679
#	155385
#	169136
#	188187
#	224528
#	247981
#	269486
#	288237
#	304195
#	322486
#
# Disc length: 4450 seconds
#
# Revision: 1
# Processed by: cddbd v1.5.2PL0 Copyright (c) Steve Scherf et al.
# Submitted via: audiograbber 1.83.01
#
DISCID=ea11600f
DTITLE=Candi Staton - Gospel Collection #1
DYEAR=2006
DGENRE=Gospel
TTITLE0=When There´s Nothing Left But God
TTITLE1=Grace, They Call It Amazing
TTITLE2=Shut Up And Start Praying
TTITLE3=Go Tell It On The Mountain
TTITLE4=Bridge Over Troublet Water
TTITLE5=The First Face I Want To See
TTITLE6=Mama
TTITLE7=You Can Make It
TTITLE8=Friend
TTITLE9=Love Lifted Me
TTITLE10=To Glorify Your Name
TTITLE11=I Will Praise
TTITLE12=He Cares
TTITLE13=Sin Doesn´t Live Here Anymore
TTITLE14=Too Late
EXTD=
EXTT0=
EXTT1=
EXTT2=
EXTT3=
EXTT4=
EXTT5=
EXTT6=
EXTT7=
EXTT8=
EXTT9=
EXTT10=
EXTT11=
EXTT12=
EXTT13=
EXTT14=
PLAYORDER=
